<?xml version="1.0" encoding="UTF-8"?>
<!DOCTYPE svg PUBLIC "-//W3C//DTD SVG 1.1//EN" "http://www.w3.org/Graphics/SVG/1.1/DTD/svg11.dtd">
<svg xmlns="http://www.w3.org/2000/svg" version="1.1" width="3000px" height="3000px" style="shape-rendering:geometricPrecision; text-rendering:geometricPrecision; image-rendering:optimizeQuality; fill-rule:evenodd; clip-rule:evenodd" xmlns:xlink="http://www.w3.org/1999/xlink">
<g><path style="opacity:0.955" fill="#181818" d="M 1228.5,418.5 C 1246.2,415.428 1258.37,422.095 1265,438.5C 1270.73,471.764 1256.9,486.597 1223.5,483C 1216.42,481.544 1210.25,478.377 1205,473.5C 1206.39,481.433 1204.56,488.6 1199.5,495C 1193.28,498.66 1187.45,498.16 1182,493.5C 1180.17,490.5 1178.33,487.5 1176.5,484.5C 1170.72,500.438 1160.72,512.938 1146.5,522C 1128.63,526.838 1116.79,520.338 1111,502.5C 1107.38,490.038 1107.71,477.705 1112,465.5C 1123.15,445.25 1139.65,439.416 1161.5,448C 1165.42,449.54 1168.92,451.707 1172,454.5C 1172.98,442.486 1179.15,437.986 1190.5,441C 1193.43,443.264 1195.6,446.098 1197,449.5C 1203.46,434.868 1213.96,424.535 1228.5,418.5 Z M 1236.5,430.5 C 1250.65,432.748 1256.48,441.081 1254,455.5C 1247.27,472.523 1235.77,476.69 1219.5,468C 1214.97,464.638 1210.3,461.471 1205.5,458.5C 1210.56,448.613 1217.56,440.446 1226.5,434C 1229.85,432.514 1233.18,431.347 1236.5,430.5 Z M 1141.5,458.5 C 1152.67,459.001 1162.67,462.667 1171.5,469.5C 1165.67,481.171 1158.84,492.171 1151,502.5C 1139.57,515.773 1130.57,514.44 1124,498.5C 1119.96,483.81 1123.46,471.31 1134.5,461C 1137,460.302 1139.34,459.469 1141.5,458.5 Z"/></g>
<g><path style="opacity:0.945" fill="#181818" d="M 1204.5,570.5 C 1212.38,574.209 1218.55,579.876 1223,587.5C 1244.6,637.329 1237.93,682.995 1203,724.5C 1180.5,748.988 1153.67,767.155 1122.5,779C 1109.05,784.263 1095.38,788.929 1081.5,793C 1048.17,801.667 1014.83,810.333 981.5,819C 957.499,825.321 935.499,835.654 915.5,850C 876.884,884.298 866.384,925.798 884,974.5C 900.494,1009.99 926.994,1034.83 963.5,1049C 965,1051.17 964.5,1052.67 962,1053.5C 908.221,1036.72 875.887,1000.72 865,945.5C 862.175,885.63 888.009,843.463 942.5,819C 953.012,814.607 963.678,810.607 974.5,807C 1008.79,798.178 1043.12,789.512 1077.5,781C 1113.89,771.118 1146.89,754.784 1176.5,732C 1192.19,718.43 1204.36,702.263 1213,683.5C 1222.9,657.198 1222.9,630.865 1213,604.5C 1209.03,594.917 1204.86,585.417 1200.5,576C 1201.01,573.455 1202.34,571.621 1204.5,570.5 Z"/></g>
<g><path style="opacity:0.944" fill="#181818" d="M 2791.5,611.5 C 2816.76,610.401 2836.6,620.068 2851,640.5C 2855.53,648.221 2859.53,656.221 2863,664.5C 2879.12,708.199 2894.46,752.199 2909,796.5C 2914.6,812.905 2919.27,829.572 2923,846.5C 2924.95,858.514 2924.95,870.514 2923,882.5C 2916.69,902.396 2903.53,909.896 2883.5,905C 2877.74,901.246 2872.58,896.746 2868,891.5C 2849.82,867.16 2834.15,841.16 2821,813.5C 2812.5,799.172 2800,792.006 2783.5,792C 2778.19,793.663 2773.19,795.829 2768.5,798.5C 2765.51,798.347 2763.51,796.847 2762.5,794C 2765.36,786.561 2770.69,781.895 2778.5,780C 2790.06,777.747 2801.06,779.414 2811.5,785C 2817.93,789.423 2823.76,794.59 2829,800.5C 2839.67,819.833 2850.33,839.167 2861,858.5C 2869.87,872.088 2880.04,884.588 2891.5,896C 2898.42,896.96 2903.92,894.46 2908,888.5C 2913.16,879.522 2914.83,869.855 2913,859.5C 2896.39,797.047 2876.39,735.714 2853,675.5C 2848.35,662.021 2841.51,649.855 2832.5,639C 2811.63,622.987 2789.63,621.32 2766.5,634C 2758.58,639.688 2752.41,646.855 2748,655.5C 2741.06,672.715 2733.06,689.382 2724,705.5C 2719.84,711.828 2714.34,716.495 2707.5,719.5C 2706.56,719.392 2705.72,719.059 2705,718.5C 2704.33,716.833 2704.33,715.167 2705,713.5C 2716.89,697.394 2725.89,679.728 2732,660.5C 2742.24,632.175 2762.08,615.842 2791.5,611.5 Z"/></g>
<g><path style="opacity:0.997" fill="#181818" d="M 2668.5,766.5 C 2684.99,770.079 2699.99,776.912 2713.5,787C 2725.13,796.59 2731.46,808.924 2732.5,824C 2715.57,881.235 2698.4,938.402 2681,995.5C 2666.16,1042.35 2649.16,1088.35 2630,1133.5C 2614.7,1170.14 2594.37,1203.47 2569,1233.5C 2529.51,1273.84 2481.35,1292.51 2424.5,1289.5C 2342.78,1285.99 2262.45,1273.49 2183.5,1252C 2174.58,1249.77 2165.91,1246.94 2157.5,1243.5C 2151.59,1216.87 2144.59,1190.53 2136.5,1164.5C 2135.5,1164.83 2134.83,1165.5 2134.5,1166.5C 2137.57,1190.6 2141.41,1214.6 2146,1238.5C 2163.31,1322.71 2179.98,1407.04 2196,1491.5C 2204.1,1537.44 2211.77,1583.44 2219,1629.5C 2220.5,1633.16 2222.5,1636.5 2225,1639.5C 2301.05,1710.51 2367.05,1789.51 2423,1876.5C 2476.87,1966.21 2528.2,2057.55 2577,2150.5C 2577.71,2158.65 2576.05,2166.32 2572,2173.5C 2557.88,2194.83 2538.71,2209.83 2514.5,2218.5C 2457.9,2183.73 2404.23,2144.9 2353.5,2102C 2121.06,1901.37 1947.89,1658.21 1834,1372.5C 1816.51,1327.37 1801.01,1281.53 1787.5,1235C 1787.86,1233.78 1788.36,1232.61 1789,1231.5C 1828.26,1208.84 1862.26,1179.84 1891,1144.5C 1902.82,1129.52 1914.15,1114.19 1925,1098.5C 1947.33,1061.83 1969.67,1025.17 1992,988.5C 2014.11,955.369 2039.61,924.869 2068.5,897C 2070.17,896 2071.83,895 2073.5,894C 2090.43,895.148 2106.76,898.982 2122.5,905.5C 2123.51,907.837 2123.35,910.17 2122,912.5C 2110.31,936.863 2099.48,961.53 2089.5,986.5C 2091.9,986.607 2093.74,985.607 2095,983.5C 2110.87,960.951 2124.2,936.951 2135,911.5C 2187.66,932.413 2237.83,957.913 2285.5,988C 2322.91,1011.7 2358.91,1037.37 2393.5,1065C 2417.98,1087.32 2442.32,1109.82 2466.5,1132.5C 2466.83,1132.17 2467.17,1131.83 2467.5,1131.5C 2457.48,1111.83 2444.48,1094.5 2428.5,1079.5C 2442.1,1024.65 2465.6,974.648 2499,929.5C 2530.28,888.215 2565.78,850.715 2605.5,817C 2626.4,799.923 2647.4,783.09 2668.5,766.5 Z M 2001.5,1108.5 C 2004.27,1108.6 2006.27,1109.93 2007.5,1112.5C 2006.14,1117.55 2003.98,1122.21 2001,1126.5C 1985.76,1143.31 1970.76,1160.31 1956,1177.5C 1948.02,1186.65 1939.52,1195.32 1930.5,1203.5C 1930.17,1203.17 1929.83,1202.83 1929.5,1202.5C 1935.24,1190.68 1941.74,1179.34 1949,1168.5C 1962.15,1152.86 1974.81,1136.86 1987,1120.5C 1991.63,1116.12 1996.46,1112.12 2001.5,1108.5 Z"/></g>
<g><path style="opacity:0.948" fill="#181818" d="M 1758.5,786.5 C 1875.84,783.42 1986.84,808.253 2091.5,861C 2095.21,867.071 2093.54,869.404 2086.5,868C 2007.57,833.351 1925.24,811.351 1839.5,802C 1733.1,792.289 1631.1,808.956 1533.5,852C 1429.94,901.222 1352.44,977.055 1301,1079.5C 1293.63,1083.14 1290.3,1080.81 1291,1072.5C 1343.71,963.455 1425.54,884.622 1536.5,836C 1607.57,805.898 1681.57,789.398 1758.5,786.5 Z"/></g>
<g><path style="opacity:0.941" fill="#181818" d="M 1741.5,832.5 C 1749.61,831.879 1754.28,835.546 1755.5,843.5C 1755.18,849.819 1751.85,853.152 1745.5,853.5C 1738.07,851.231 1734.9,846.231 1736,838.5C 1737.02,835.65 1738.85,833.65 1741.5,832.5 Z"/></g>
<g><path style="opacity:0.931" fill="#181818" d="M 2000.5,880.5 C 2011.32,879.818 2016.15,884.818 2015,895.5C 2009.18,903.405 2003.18,903.405 1997,895.5C 1994.17,889.376 1995.34,884.376 2000.5,880.5 Z"/></g>
<g><path style="opacity:0.907" fill="#181818" d="M 1840.5,909.5 C 1846.98,908.896 1851.31,911.563 1853.5,917.5C 1850.39,925.483 1845.22,927.149 1838,922.5C 1835.61,917.485 1836.45,913.151 1840.5,909.5 Z"/></g>
<g><path style="opacity:0.897" fill="#181818" d="M 1513.5,928.5 C 1519.59,928.433 1523.59,931.267 1525.5,937C 1522.31,944.911 1517.14,946.411 1510,941.5C 1507.35,936.039 1508.51,931.706 1513.5,928.5 Z"/></g>
<g><path style="opacity:0.981" fill="#38a1ff" d="M 556.5,938.5 C 610.229,932.937 660.229,943.771 706.5,971C 709.704,973.869 712.537,977.035 715,980.5C 715.789,984.091 715.622,987.591 714.5,991C 727.508,994.89 740.175,999.556 752.5,1005C 756.997,1009.16 759.497,1014.33 760,1020.5C 769.474,1061.4 778.474,1102.4 787,1143.5C 805.734,1141.86 824.567,1141.02 843.5,1141C 910.172,1140.24 976.839,1140.57 1043.5,1142C 1046.58,1142.35 1049.58,1143.01 1052.5,1144C 1057.99,1147.23 1057.65,1149.9 1051.5,1152C 960.839,1154.06 870.172,1154.72 779.5,1154C 695.918,1169.49 611.918,1182.15 527.5,1192C 520.833,1192.67 514.167,1192.67 507.5,1192C 506.14,1190.06 506.473,1188.4 508.5,1187C 516.705,1184.2 525.038,1181.87 533.5,1180C 602.884,1172.28 671.884,1161.95 740.5,1149C 750.585,1146.81 760.585,1144.31 770.5,1141.5C 768.231,1100.07 760.064,1059.74 746,1020.5C 742.919,1017.71 739.419,1015.54 735.5,1014C 723.29,1010.03 710.957,1006.53 698.5,1003.5C 685.904,1008.61 673.238,1008.78 660.5,1004C 648.713,998.773 636.713,994.106 624.5,990C 594.34,984.091 564.007,983.091 533.5,987C 516.774,988.507 500.108,990.507 483.5,993C 413.108,1004.68 342.775,1016.68 272.5,1029C 247.999,1028.58 223.499,1027.75 199,1026.5C 186.831,1026.94 174.664,1027.44 162.5,1028C 162.043,1028.41 161.709,1028.91 161.5,1029.5C 213.88,1034.17 266.213,1039.34 318.5,1045C 329.555,1046.4 336.555,1052.4 339.5,1063C 358.223,1066.74 376.889,1070.74 395.5,1075C 398.937,1076.1 401.437,1078.27 403,1081.5C 411.666,1104.5 419.333,1127.83 426,1151.5C 440.311,1201.41 454.311,1251.41 468,1301.5C 530.134,1535.04 591.801,1768.7 653,2002.5C 671.194,2070.61 689.694,2138.61 708.5,2206.5C 923.483,2202.5 1138.48,2200 1353.5,2199C 1361.69,2202.98 1363.69,2209.14 1359.5,2217.5C 1357.97,2218.86 1356.3,2220.03 1354.5,2221C 1340.85,2222.02 1327.19,2222.69 1313.5,2223C 1108.15,2227.94 902.813,2232.11 697.5,2235.5C 692.243,2235.12 688.076,2232.79 685,2228.5C 601.087,1918.18 518.42,1607.51 437,1296.5C 424.203,1249.11 411.203,1201.78 398,1154.5C 392.466,1134.56 386.132,1114.9 379,1095.5C 373.506,1092.67 367.673,1090.84 361.5,1090C 349.682,1088.38 337.849,1086.88 326,1085.5C 319.025,1087.9 312.191,1090.74 305.5,1094C 287.305,1099.86 268.638,1102.69 249.5,1102.5C 236.799,1102.19 224.133,1101.35 211.5,1100C 177.096,1095.79 142.763,1091.13 108.5,1086C 97.6667,1084.17 88.1667,1079.67 80,1072.5C 69.6256,1055.17 72.1256,1040.01 87.5,1027C 107.759,1016.25 129.092,1008.25 151.5,1003C 169.369,998.699 187.369,995.033 205.5,992C 285.92,979.208 366.253,965.874 446.5,952C 483.138,946.003 519.805,941.503 556.5,938.5 Z"/></g>
<g><path style="opacity:0.924" fill="#181818" d="M 1935.5,999.5 C 1943.82,997.993 1947.32,1001.33 1946,1009.5C 1942.17,1014.34 1938,1014.67 1933.5,1010.5C 1931.76,1006.31 1932.43,1002.64 1935.5,999.5 Z"/></g>
<g><path style="opacity:0.944" fill="#181818" d="M 1840.5,1002.5 C 1844.8,1002.84 1846.3,1005.18 1845,1009.5C 1829.73,1033.69 1815.73,1058.69 1803,1084.5C 1779.71,1135.11 1770.54,1188.11 1775.5,1243.5C 1770.7,1249.17 1767.2,1248.5 1765,1241.5C 1759.2,1200.03 1762.87,1159.36 1776,1119.5C 1786.12,1086.26 1800.79,1055.26 1820,1026.5C 1826.6,1018.28 1833.44,1010.28 1840.5,1002.5 Z"/></g>
<g><path style="opacity:0.927" fill="#181818" d="M 1658.5,1030.5 C 1664.98,1029.9 1669.31,1032.56 1671.5,1038.5C 1669.58,1045.14 1665.25,1047.31 1658.5,1045C 1654.79,1042.49 1653.62,1038.99 1655,1034.5C 1655.69,1032.65 1656.86,1031.32 1658.5,1030.5 Z"/></g>
<g><path style="opacity:0.947" fill="#181818" d="M 1368.5,1036.5 C 1371,1036.83 1372.17,1038.16 1372,1040.5C 1329.33,1081.54 1306.99,1131.87 1305,1191.5C 1304.33,1209.83 1304.33,1228.17 1305,1246.5C 1308.55,1291.51 1312.21,1336.51 1316,1381.5C 1316.81,1395.83 1317.15,1410.17 1317,1424.5C 1315.52,1427.99 1313.52,1428.33 1311,1425.5C 1306.31,1400.32 1302.64,1374.98 1300,1349.5C 1280.66,1302.83 1258.16,1257.83 1232.5,1214.5C 1233.35,1212.72 1234.68,1212.22 1236.5,1213C 1260.38,1240.57 1279.88,1271.07 1295,1304.5C 1293.62,1285.54 1292.29,1266.54 1291,1247.5C 1287.97,1208.66 1290.97,1170.33 1300,1132.5C 1308.51,1102.04 1323.68,1075.54 1345.5,1053C 1352.88,1046.99 1360.55,1041.49 1368.5,1036.5 Z"/></g>
<g><path style="opacity:0.939" fill="#181818" d="M 1741.5,1046.5 C 1745.57,1045.51 1747.57,1047.01 1747.5,1051C 1742.27,1097.07 1741.1,1143.24 1744,1189.5C 1741.33,1190.83 1738.67,1190.83 1736,1189.5C 1728.17,1144.72 1728.84,1100.05 1738,1055.5C 1738.49,1052.17 1739.66,1049.17 1741.5,1046.5 Z"/></g>
<g><path style="opacity:0.942" fill="#181818" d="M 1452.5,1085.5 C 1462.99,1086.14 1467.16,1091.47 1465,1101.5C 1458.27,1108.61 1452.27,1107.94 1447,1099.5C 1445.02,1093.08 1446.85,1088.42 1452.5,1085.5 Z"/></g>
<g><path style="opacity:0.949" fill="#181818" d="M 1552.5,1092.5 C 1553.83,1092.5 1555.17,1092.5 1556.5,1092.5C 1549.68,1180.11 1532.85,1265.78 1506,1349.5C 1489.25,1403.16 1465.25,1453.16 1434,1499.5C 1420.87,1517.63 1405.37,1533.46 1387.5,1547C 1346.53,1572.89 1303.86,1575.89 1259.5,1556C 1231,1541.18 1207.84,1520.34 1190,1493.5C 1168.81,1459.11 1152.48,1422.44 1141,1383.5C 1128.07,1344.11 1119.74,1303.78 1116,1262.5C 1115.25,1252.17 1114.91,1241.83 1115,1231.5C 1115.37,1230.58 1115.87,1229.75 1116.5,1229C 1119.61,1228.88 1122.61,1228.71 1125.5,1228.5C 1120.68,1215.21 1115.18,1202.21 1109,1189.5C 1102.87,1178.44 1093.54,1172.1 1081,1170.5C 1076.34,1170.7 1072.17,1172.2 1068.5,1175C 1063.17,1176.18 1060.17,1174.02 1059.5,1168.5C 1060.05,1165.23 1061.72,1162.73 1064.5,1161C 1084.83,1152.71 1101.33,1157.54 1114,1175.5C 1123.75,1190.43 1129.75,1206.76 1132,1224.5C 1157.64,1212.23 1184.14,1202.23 1211.5,1194.5C 1211.01,1176.89 1208.51,1159.55 1204,1142.5C 1200.4,1128.95 1193.06,1117.95 1182,1109.5C 1179.87,1107.42 1180.03,1105.59 1182.5,1104C 1192.29,1103.64 1200.12,1107.48 1206,1115.5C 1214.86,1129.91 1220.19,1145.58 1222,1162.5C 1223.56,1171.77 1224.39,1181.1 1224.5,1190.5C 1231.99,1189.3 1234.82,1192.3 1233,1199.5C 1230.91,1200.79 1228.75,1201.96 1226.5,1203C 1195.74,1210.7 1166.07,1221.37 1137.5,1235C 1132.9,1236.8 1128.24,1238.3 1123.5,1239.5C 1130.2,1286.83 1140.03,1333.5 1153,1379.5C 1164.01,1417.23 1180.01,1452.56 1201,1485.5C 1218.67,1511.84 1241.83,1531.67 1270.5,1545C 1315.8,1562.87 1356.47,1555.54 1392.5,1523C 1411.03,1505.09 1426.53,1484.92 1439,1462.5C 1469.11,1409.26 1491.78,1352.92 1507,1293.5C 1521.07,1236.15 1533.74,1178.48 1545,1120.5C 1547.81,1111.23 1550.31,1101.9 1552.5,1092.5 Z"/></g>
<g><path style="opacity:0.941" fill="#181818" d="M 1137.5,1110.5 C 1148.66,1108.27 1157.16,1111.93 1163,1121.5C 1164.83,1129.67 1161.67,1132.83 1153.5,1131C 1150.83,1128.33 1148.17,1125.67 1145.5,1123C 1142.17,1122 1138.83,1121 1135.5,1120C 1132.74,1116.11 1133.41,1112.94 1137.5,1110.5 Z"/></g>
<g><path style="opacity:0.941" fill="#181818" d="M 1100.5,1125.5 C 1114.53,1125.44 1126.36,1130.44 1136,1140.5C 1137.27,1147.56 1134.44,1150.06 1127.5,1148C 1120.03,1143.43 1112.03,1140.26 1103.5,1138.5C 1097.17,1139.5 1091.83,1142.33 1087.5,1147C 1085.83,1147.67 1084.17,1147.67 1082.5,1147C 1080.83,1142.38 1081.66,1138.21 1085,1134.5C 1089.29,1129.78 1094.46,1126.78 1100.5,1125.5 Z"/></g>
<g><path style="opacity:0.916" fill="#181818" d="M 1838.5,1125.5 C 1845.64,1124.07 1850.31,1126.73 1852.5,1133.5C 1851.63,1138.2 1848.8,1140.53 1844,1140.5C 1835.04,1138.27 1833.21,1133.27 1838.5,1125.5 Z"/></g>
<g><path style="opacity:0.898" fill="#181818" d="M 1579.5,1132.5 C 1587.16,1131.66 1590.66,1135 1590,1142.5C 1585.97,1147.36 1581.63,1147.7 1577,1143.5C 1574.83,1139.19 1575.66,1135.53 1579.5,1132.5 Z"/></g>
<g><path style="opacity:0.94" fill="#38a1ff" d="M 945.5,1179.5 C 993.186,1179.37 1040.85,1180.2 1088.5,1182C 1091.17,1184.67 1091.17,1187.33 1088.5,1190C 977.46,1187.71 866.46,1189.37 755.5,1195C 661.675,1200.32 567.842,1205.49 474,1210.5C 470.167,1210.33 466.333,1210.17 462.5,1210C 459.93,1207.09 460.263,1204.42 463.5,1202C 624.173,1191.11 784.84,1183.61 945.5,1179.5 Z"/></g>
<g><path style="opacity:0.929" fill="#38a1ff" d="M 1234.5,1183.5 C 1249.17,1183.33 1263.84,1183.5 1278.5,1184C 1281.17,1186.67 1281.17,1189.33 1278.5,1192C 1263.83,1192.67 1249.17,1192.67 1234.5,1192C 1231.9,1189.17 1231.9,1186.34 1234.5,1183.5 Z"/></g>
<g><path style="opacity:0.958" fill="#38a1ff" d="M 1553.5,1183.5 C 1620.76,1184.84 1687.76,1189.67 1754.5,1198C 1756.12,1199.12 1757.12,1200.62 1757.5,1202.5C 1733.18,1262.3 1709.35,1322.3 1686,1382.5C 1628.61,1542.68 1571.61,1703.02 1515,1863.5C 1513.4,1867.99 1511.23,1872.15 1508.5,1876C 1327.08,1872.58 1145.58,1869.08 964,1865.5C 918.505,1866.28 873.005,1866.78 827.5,1867C 770.494,1868.64 713.494,1870.47 656.5,1872.5C 649.167,1872.33 641.833,1872.17 634.5,1872C 633.577,1869.96 633.244,1867.79 633.5,1865.5C 712.61,1857.37 791.943,1853.21 871.5,1853C 978.176,1852.11 1084.84,1852.78 1191.5,1855C 1294.2,1857.3 1396.86,1859.96 1499.5,1863C 1555.89,1698.83 1614.05,1535.33 1674,1372.5C 1686.88,1338.51 1700.55,1304.85 1715,1271.5C 1725.26,1249.15 1736.42,1227.32 1748.5,1206C 1683.7,1198.72 1618.7,1194.39 1553.5,1193C 1549.58,1189.84 1549.58,1186.67 1553.5,1183.5 Z"/></g>
<g><path style="opacity:0.891" fill="#191919" d="M 1347.5,1235.5 C 1353.33,1234.58 1357,1236.91 1358.5,1242.5C 1356.08,1249.7 1351.58,1251.37 1345,1247.5C 1342.51,1242.76 1343.34,1238.76 1347.5,1235.5 Z"/></g>
<g><path style="opacity:0.952" fill="#38a1ff" d="M 985.5,1292.5 C 989.392,1293.74 990.392,1296.24 988.5,1300C 931.221,1327.97 874.221,1356.47 817.5,1385.5C 837.933,1415.38 858.599,1445.05 879.5,1474.5C 913.62,1457.36 947.787,1440.36 982,1423.5C 970.998,1403.85 959.664,1384.19 948,1364.5C 944.219,1358.04 945.886,1355.37 953,1356.5C 967.167,1376.83 981.333,1397.17 995.5,1417.5C 1008.62,1410.46 1022.29,1404.79 1036.5,1400.5C 1041.54,1401.79 1042.54,1404.63 1039.5,1409C 1026.63,1415.94 1013.63,1422.6 1000.5,1429C 1009.04,1442.59 1017.21,1456.42 1025,1470.5C 1026.01,1474.15 1024.67,1476.49 1021,1477.5C 1018.53,1476.9 1016.53,1475.56 1015,1473.5C 1006.49,1460.46 997.987,1447.46 989.5,1434.5C 955.344,1451.41 921.344,1468.58 887.5,1486C 907.231,1515.31 927.564,1544.14 948.5,1572.5C 986.942,1551.95 1025.94,1532.45 1065.5,1514C 1070.22,1513.21 1071.88,1515.05 1070.5,1519.5C 1031.82,1541.18 992.82,1562.34 953.5,1583C 971.448,1607.62 988.615,1632.79 1005,1658.5C 1006.83,1664.67 1004.67,1666.83 998.5,1665C 979.282,1640.12 960.448,1614.95 942,1589.5C 912.221,1607.31 881.721,1623.98 850.5,1639.5C 846.725,1638.54 845.725,1636.37 847.5,1633C 876.169,1614.33 905.503,1596.66 935.5,1580C 915.031,1550.88 894.698,1521.72 874.5,1492.5C 844.766,1507.12 815.266,1522.12 786,1537.5C 790.673,1545.81 795.673,1554.15 801,1562.5C 802.645,1565.62 804.145,1568.79 805.5,1572C 804.033,1574.19 802.033,1574.85 799.5,1574C 790.242,1564.08 781.742,1553.58 774,1542.5C 726.139,1568.35 677.639,1593.01 628.5,1616.5C 625.911,1615.28 625.077,1613.28 626,1610.5C 671.481,1583.06 717.981,1557.23 765.5,1533C 744.877,1503.59 724.377,1474.09 704,1444.5C 681.646,1457.09 658.812,1468.76 635.5,1479.5C 632.918,1479.25 632.085,1477.92 633,1475.5C 654.039,1460.81 675.872,1447.31 698.5,1435C 670.413,1392.89 643.913,1349.72 619,1305.5C 618.257,1303.56 618.424,1301.73 619.5,1300C 620.5,1299.33 621.5,1299.33 622.5,1300C 626.362,1304.23 629.862,1308.73 633,1313.5C 658.915,1351.66 684.581,1389.99 710,1428.5C 739.927,1411.79 770.094,1395.45 800.5,1379.5C 792.263,1364.44 783.43,1349.77 774,1335.5C 773.508,1334.45 773.674,1333.45 774.5,1332.5C 776.167,1331.17 777.833,1331.17 779.5,1332.5C 789.112,1346.94 799.279,1360.94 810,1374.5C 868.305,1346.47 926.805,1319.14 985.5,1292.5 Z M 807.5,1389.5 C 827.441,1419.79 847.441,1450.13 867.5,1480.5C 837.675,1495.91 808.009,1511.58 778.5,1527.5C 757.957,1497.58 737.29,1467.75 716.5,1438C 747.212,1422.31 777.546,1406.15 807.5,1389.5 Z"/></g>
<g><path style="opacity:0.922" fill="#181818" d="M 1165.5,1294.5 C 1174.73,1295.13 1177.4,1299.63 1173.5,1308C 1166.22,1312.36 1161.22,1310.53 1158.5,1302.5C 1159.48,1298.52 1161.82,1295.86 1165.5,1294.5 Z"/></g>
<g><path style="opacity:0.935" fill="#181818" d="M 1258.5,1325.5 C 1268.15,1325.98 1272.65,1330.98 1272,1340.5C 1268.64,1346.48 1263.8,1347.98 1257.5,1345C 1250.52,1337.87 1250.85,1331.37 1258.5,1325.5 Z"/></g>
<g><path style="opacity:0.922" fill="#181818" d="M 1433.5,1354.5 C 1443.81,1353.64 1448.64,1358.31 1448,1368.5C 1445.18,1374.17 1440.68,1376 1434.5,1374C 1427.07,1367.6 1426.74,1361.1 1433.5,1354.5 Z"/></g>
<g><path style="opacity:0.89" fill="#191919" d="M 1224.5,1458.5 C 1231.64,1457.07 1236.31,1459.73 1238.5,1466.5C 1237.63,1471.2 1234.8,1473.53 1230,1473.5C 1221.05,1471.32 1219.21,1466.32 1224.5,1458.5 Z"/></g>
<g><path style="opacity:0.911" fill="#181818" d="M 1333.5,1479.5 C 1343.69,1480.16 1346.03,1484.66 1340.5,1493C 1332.37,1495.21 1328.87,1492.05 1330,1483.5C 1330.69,1481.65 1331.86,1480.32 1333.5,1479.5 Z"/></g>
<g><path style="opacity:0.948" fill="#38a1ff" d="M 1469.5,1480.5 C 1472.81,1479.97 1474.97,1481.31 1476,1484.5C 1498.31,1522.33 1519.15,1560.99 1538.5,1600.5C 1538.16,1603.02 1536.83,1604.18 1534.5,1604C 1522.97,1589.78 1512.8,1574.61 1504,1558.5C 1419.09,1600.87 1333.59,1642.04 1247.5,1682C 1260.97,1700.31 1274.64,1718.47 1288.5,1736.5C 1319.08,1721.38 1349.74,1706.54 1380.5,1692C 1371.93,1678.36 1364.26,1664.19 1357.5,1649.5C 1360.95,1645.39 1364.12,1645.72 1367,1650.5C 1375.58,1662.66 1383.91,1674.99 1392,1687.5C 1417.4,1675.36 1443.24,1664.2 1469.5,1654C 1473.67,1652.83 1475.17,1654.33 1474,1658.5C 1471.92,1660.12 1469.75,1661.62 1467.5,1663C 1444.78,1675.36 1421.78,1687.19 1398.5,1698.5C 1408.59,1715.67 1418.42,1733 1428,1750.5C 1428.98,1752.96 1429.81,1755.46 1430.5,1758C 1429.03,1763.27 1426.53,1763.77 1423,1759.5C 1410.58,1741 1398.42,1722.34 1386.5,1703.5C 1356.38,1717.64 1326.21,1731.64 1296,1745.5C 1295.33,1746.17 1295.33,1746.83 1296,1747.5C 1304.66,1758.14 1312.32,1769.48 1319,1781.5C 1319.66,1784.35 1318.49,1786.02 1315.5,1786.5C 1311.25,1783.76 1307.42,1780.42 1304,1776.5C 1296.79,1768.29 1289.95,1759.79 1283.5,1751C 1279.9,1751.69 1276.23,1752.52 1272.5,1753.5C 1268.77,1753.2 1267.61,1751.2 1269,1747.5C 1271.09,1746.21 1273.25,1745.04 1275.5,1744C 1276.45,1743.28 1276.62,1742.45 1276,1741.5C 1262.72,1723.22 1249.05,1705.22 1235,1687.5C 1201.8,1703.27 1168.13,1717.93 1134,1731.5C 1131.72,1730.3 1131.22,1728.63 1132.5,1726.5C 1163.57,1709.3 1195.24,1693.13 1227.5,1678C 1207,1649.5 1186.5,1621 1166,1592.5C 1165.17,1588 1167,1586.17 1171.5,1587C 1194.46,1615.11 1217.3,1643.27 1240,1671.5C 1326.78,1630.36 1413.95,1590.19 1501.5,1551C 1489.7,1529.89 1478.53,1508.39 1468,1486.5C 1467.25,1484.16 1467.75,1482.16 1469.5,1480.5 Z"/></g>
<g><path style="opacity:0.956" fill="#38a1ff" d="M 1859.5,1515.5 C 1860.5,1515.5 1861.5,1515.5 1862.5,1515.5C 1858.78,1531.49 1853.95,1547.15 1848,1562.5C 1823.85,1623.45 1799.02,1684.11 1773.5,1744.5C 1777.06,1746.12 1778.22,1748.79 1777,1752.5C 1746.52,1767.99 1715.68,1782.82 1684.5,1797C 1642.54,1817.65 1601.2,1839.31 1560.5,1862C 1553.5,1866 1546.16,1869.17 1538.5,1871.5C 1534.99,1871.49 1533.49,1869.83 1534,1866.5C 1544.52,1857.82 1555.68,1849.98 1567.5,1843C 1631.11,1806.19 1697.11,1774.19 1765.5,1747C 1763.81,1745.09 1763.31,1742.92 1764,1740.5C 1768.77,1724.96 1774.1,1709.63 1780,1694.5C 1795.47,1656.42 1811.14,1618.42 1827,1580.5C 1836.81,1558.22 1847.64,1536.56 1859.5,1515.5 Z"/></g>
<g><path style="opacity:0.979" fill="#38a1ff" d="M 871.5,1879.5 C 877.706,1878.18 881.539,1880.51 883,1886.5C 896.11,1960.33 908.943,2034.16 921.5,2108C 1128.77,2102.13 1336.1,2099.13 1543.5,2099C 1578.23,2098.88 1612.9,2100.22 1647.5,2103C 1655.33,2103.17 1659.49,2107 1660,2114.5C 1647.09,2117.9 1633.92,2120.07 1620.5,2121C 1591.54,2123.14 1562.54,2124.47 1533.5,2125C 1324.49,2128.32 1115.49,2131.32 906.5,2134C 902.725,2132.56 899.892,2130.06 898,2126.5C 885.655,2045.75 875.655,1964.75 868,1883.5C 869.376,1882.29 870.542,1880.96 871.5,1879.5 Z"/></g>
<g><path style="opacity:0.946" fill="#181818" d="M 2610.5,2185.5 C 2637.04,2186.85 2657.21,2198.85 2671,2221.5C 2679.57,2239.43 2681.57,2258.1 2677,2277.5C 2671.48,2299.55 2661.48,2319.21 2647,2336.5C 2630.96,2354.87 2615.29,2373.54 2600,2392.5C 2585.92,2415.67 2571.58,2438.67 2557,2461.5C 2547.43,2473.08 2536.59,2483.24 2524.5,2492C 2506.33,2502.74 2487,2505.74 2466.5,2501C 2448.42,2492.48 2441.58,2478.31 2446,2458.5C 2447.82,2450.53 2450.48,2442.87 2454,2435.5C 2466.86,2411.11 2479.19,2386.45 2491,2361.5C 2510.47,2318.28 2520.47,2272.95 2521,2225.5C 2523.01,2222.91 2524.84,2223.07 2526.5,2226C 2531.89,2249.86 2531.73,2273.7 2526,2297.5C 2519.79,2321.79 2511.79,2345.46 2502,2368.5C 2490.54,2393.41 2478.54,2418.08 2466,2442.5C 2462.28,2450.99 2459.78,2459.82 2458.5,2469C 2459.8,2479.97 2465.8,2486.97 2476.5,2490C 2502.48,2491.26 2523.65,2481.76 2540,2461.5C 2556.85,2437.64 2572.52,2412.97 2587,2387.5C 2604.25,2365.58 2622.25,2344.25 2641,2323.5C 2654.5,2307.17 2663.16,2288.5 2667,2267.5C 2670.68,2244.21 2663.52,2225.04 2645.5,2210C 2634.45,2203.48 2623.12,2197.48 2611.5,2192C 2609.42,2190.04 2609.09,2187.87 2610.5,2185.5 Z"/></g>
<g><path style="opacity:0.989" fill="#38a1ff" d="M 1571.5,2218.5 C 1592.5,2216.8 1611.84,2221.63 1629.5,2233C 1644.07,2245.7 1649.23,2261.53 1645,2280.5C 1630.43,2325.75 1601.59,2358.58 1558.5,2379C 1538.74,2387.85 1518.41,2389.85 1497.5,2385C 1472.95,2372.74 1462.45,2352.9 1466,2325.5C 1475.33,2279.5 1501.16,2246.34 1543.5,2226C 1552.72,2222.53 1562.05,2220.03 1571.5,2218.5 Z M 1608.5,2246.5 C 1618.69,2249.86 1624.86,2256.86 1627,2267.5C 1628,2279.81 1625.67,2291.48 1620,2302.5C 1607.81,2326.69 1589.64,2344.86 1565.5,2357C 1561.25,2358.19 1556.92,2358.69 1552.5,2358.5C 1552.27,2355.22 1553.6,2352.72 1556.5,2351C 1568.97,2342.68 1580.8,2333.51 1592,2323.5C 1605.17,2307.99 1613.34,2290.16 1616.5,2270C 1616.09,2261.85 1612.76,2255.19 1606.5,2250C 1607.31,2248.89 1607.97,2247.72 1608.5,2246.5 Z"/></g>
<g><path style="opacity:0.99" fill="#38a1ff" d="M 841.5,2379.5 C 864.886,2378.2 886.22,2384.04 905.5,2397C 921.558,2410.5 927.724,2427.67 924,2448.5C 919.714,2469.04 911.381,2487.71 899,2504.5C 878.235,2534.3 851.068,2556.13 817.5,2570C 798.194,2578.06 778.194,2581.06 757.5,2579C 730.558,2573.72 714.725,2557.56 710,2530.5C 707.913,2510.69 710.913,2491.69 719,2473.5C 743.121,2420.06 783.954,2388.73 841.5,2379.5 Z M 869.5,2406.5 C 886.728,2407.53 898.228,2416.2 904,2432.5C 908.464,2443.8 908.464,2455.14 904,2466.5C 898.96,2478.85 892.293,2490.19 884,2500.5C 865.491,2521.32 843.991,2538.15 819.5,2551C 810.205,2554.99 800.538,2556.66 790.5,2556C 789.167,2555 789.167,2554 790.5,2553C 821.393,2539.82 848.56,2521.32 872,2497.5C 876.667,2491.5 881.333,2485.5 886,2479.5C 896.491,2462.44 897.824,2444.77 890,2426.5C 883.491,2417.16 874.658,2411.16 863.5,2408.5C 865.631,2407.83 867.631,2407.16 869.5,2406.5 Z"/></g>
<g><path style="opacity:0.991" fill="#38a1ff" d="M 1261.5,2380.5 C 1284.87,2378.93 1306.54,2384.09 1326.5,2396C 1340.98,2406.96 1348.31,2421.63 1348.5,2440C 1346.59,2463.64 1338.42,2484.81 1324,2503.5C 1302.78,2533.73 1275.28,2556.23 1241.5,2571C 1222.24,2578.99 1202.24,2581.99 1181.5,2580C 1152.18,2574.24 1136.01,2556.4 1133,2526.5C 1132.1,2502.54 1137.76,2480.21 1150,2459.5C 1168.62,2427.54 1194.79,2404.04 1228.5,2389C 1239.35,2385.04 1250.35,2382.2 1261.5,2380.5 Z M 1288.5,2401.5 C 1297.72,2400.29 1305.22,2403.29 1311,2410.5C 1331.16,2440.88 1330.16,2470.55 1308,2499.5C 1296.83,2513.33 1284.33,2525.83 1270.5,2537C 1264.76,2540.79 1258.59,2543.62 1252,2545.5C 1249.83,2544.67 1248.33,2543.17 1247.5,2541C 1250.8,2536.7 1254.46,2532.7 1258.5,2529C 1284.48,2514.01 1301.98,2492.18 1311,2463.5C 1314.54,2447.39 1312.54,2432.06 1305,2417.5C 1300.57,2410.87 1294.4,2407.2 1286.5,2406.5C 1286.37,2404.45 1287.03,2402.78 1288.5,2401.5 Z"/></g>
</svg>
